<?xml version="1.0" encoding="UTF-8"?>
<svg version="1.1" xmlns="http://www.w3.org/2000/svg" width="48" height="48">
    <path
        d="M0 0 C2.77043955 0.88517884 4.12153495 1.83623232 6.23046875 3.8125 C6.90464844 4.43253906 7.57882813 5.05257813 8.2734375 5.69140625 C9.02238281 6.39136719 9.77132812 7.09132813 10.54296875 7.8125 C12.37410181 9.46078098 14.20745184 11.10660226 16.04296875 12.75 C17.54346821 14.10361322 19.04364813 15.45758116 20.54296875 16.8125 C20.21296875 18.1325 19.88296875 19.4525 19.54296875 20.8125 C18.88296875 20.8125 18.22296875 20.8125 17.54296875 20.8125 C17.54296875 27.4125 17.54296875 34.0125 17.54296875 40.8125 C5.66296875 40.8125 -6.21703125 40.8125 -18.45703125 40.8125 C-18.45703125 34.2125 -18.45703125 27.6125 -18.45703125 20.8125 C-19.44703125 20.4825 -20.43703125 20.1525 -21.45703125 19.8125 C-20.88240826 16.33341896 -19.76477042 14.79192201 -17.18359375 12.4296875 C-16.52359375 11.81996094 -15.86359375 11.21023438 -15.18359375 10.58203125 C-14.49007813 9.95683594 -13.7965625 9.33164063 -13.08203125 8.6875 C-12.39625 8.05457031 -11.71046875 7.42164063 -11.00390625 6.76953125 C-3.33833812 -0.25475394 -3.33833812 -0.25475394 0 0 Z "
        fill="#F2BC52" transform="translate(24.45703125,2.1875)" />
    <path
        d="M0 0 C2.77043955 0.88517884 4.12153495 1.83623232 6.23046875 3.8125 C6.90464844 4.43253906 7.57882813 5.05257813 8.2734375 5.69140625 C9.02238281 6.39136719 9.77132812 7.09132813 10.54296875 7.8125 C12.37410181 9.46078098 14.20745184 11.10660226 16.04296875 12.75 C17.54346821 14.10361322 19.04364813 15.45758116 20.54296875 16.8125 C20.21296875 18.1325 19.88296875 19.4525 19.54296875 20.8125 C15.11793857 20.37742509 12.61570446 17.33262235 9.60546875 14.375 C6.18465396 11.01442598 3.22819276 8.25344366 -1.45703125 6.8125 C-2.10929687 7.40417969 -2.7615625 7.99585938 -3.43359375 8.60546875 C-5.23367399 10.23297492 -7.03854828 11.85519108 -8.84765625 13.47265625 C-10.35036242 14.82014277 -11.84508237 16.17690935 -13.31640625 17.55859375 C-14.83203125 18.9375 -14.83203125 18.9375 -17.45703125 20.8125 C-19.83203125 20.625 -19.83203125 20.625 -21.45703125 19.8125 C-20.88240826 16.33341896 -19.76477042 14.79192201 -17.18359375 12.4296875 C-16.52359375 11.81996094 -15.86359375 11.21023438 -15.18359375 10.58203125 C-14.49007813 9.95683594 -13.7965625 9.33164063 -13.08203125 8.6875 C-12.39625 8.05457031 -11.71046875 7.42164063 -11.00390625 6.76953125 C-3.33833812 -0.25475394 -3.33833812 -0.25475394 0 0 Z "
        fill="#CA7822" transform="translate(24.45703125,2.1875)" />
    <path
        d="M0 0 C2 2 2 2 2 5 C2.66 5 3.32 5 4 5 C4.12375 4.360625 4.2475 3.72125 4.375 3.0625 C4.58125 2.381875 4.7875 1.70125 5 1 C5.66 0.67 6.32 0.34 7 0 C7.66 1.65 8.32 3.3 9 5 C9.33 3.68 9.66 2.36 10 1 C12.46800047 2.15173355 14.04783565 3.04783565 16 5 C15.67 6.65 15.34 8.3 15 10 C6.75 10 -1.5 10 -10 10 C-10 4 -10 4 -8.6875 2.125 C-7 1 -7 1 -4 1 C-3.34 2.32 -2.68 3.64 -2 5 C-1.34 3.35 -0.68 1.7 0 0 Z "
        fill="#DD8227" transform="translate(21,26)" />
    <path
        d="M0 0 C2.58737859 1.52588994 3.8431714 2.92013905 5.4375 5.4375 C2.50046616 4.80813561 0.09961372 3.81329827 -2.5625 2.4375 C-11.25697874 9.23928747 -11.25697874 9.23928747 -18.5625 17.4375 C-18.8925 16.4475 -19.2225 15.4575 -19.5625 14.4375 C-17.48130554 12.49765834 -15.39765453 10.56057706 -13.3125 8.625 C-12.43271484 7.80418945 -12.43271484 7.80418945 -11.53515625 6.96679688 C-3.24986834 -0.71338573 -3.24986834 -0.71338573 0 0 Z "
        fill="#E8B65F" transform="translate(25.5625,8.5625)" />
    <path
        d="M0 0 C1.4540625 0.0309375 1.4540625 0.0309375 2.9375 0.0625 C2.6075 1.0525 2.2775 2.0425 1.9375 3.0625 C1.6075 2.7325 1.2775 2.4025 0.9375 2.0625 C0.2775 3.7125 -0.3825 5.3625 -1.0625 7.0625 C-1.7225 6.7325 -2.3825 6.4025 -3.0625 6.0625 C-3.75 3.5625 -3.75 3.5625 -4.0625 1.0625 C-3.0625 0.0625 -3.0625 0.0625 0 0 Z "
        fill="#E9A44C" transform="translate(20.0625,24.9375)" />
    <path
        d="M0 0 C2.875 -0.125 2.875 -0.125 6 0 C6.66 0.66 7.32 1.32 8 2 C7.34 2 6.68 2 6 2 C5.67 3.65 5.34 5.3 5 7 C3 4 3 4 2 2 C1.01 2.495 1.01 2.495 0 3 C0 2.01 0 1.02 0 0 Z "
        fill="#E9A64D" transform="translate(25,25)" />
</svg>