<?xml version="1.0" encoding="UTF-8"?>
<svg version="1.1" xmlns="http://www.w3.org/2000/svg" width="96" height="96">
    <path
        d="M0 0 C1.24394531 -0.03738281 2.48789062 -0.07476562 3.76953125 -0.11328125 C7.1875 0.3125 7.1875 0.3125 9.43359375 1.78515625 C11.88291644 5.31458114 13.11628856 8.99775256 14.4375 13.0625 C14.705625 13.85527344 14.97375 14.64804687 15.25 15.46484375 C15.90637841 17.41053689 16.54838477 19.36106818 17.1875 21.3125 C17.21255615 20.71187744 17.2376123 20.11125488 17.26342773 19.49243164 C17.3790528 16.78638563 17.50192936 14.08071717 17.625 11.375 C17.66431641 10.42947266 17.70363281 9.48394531 17.74414062 8.50976562 C17.78603516 7.61064453 17.82792969 6.71152344 17.87109375 5.78515625 C17.90775146 4.95250244 17.94440918 4.11984863 17.98217773 3.26196289 C18.1875 1.3125 18.1875 1.3125 19.1875 0.3125 C20.62490353 0.21436013 22.06706327 0.1845172 23.5078125 0.18310547 C24.42546387 0.17995331 25.34311523 0.17680115 26.28857422 0.17355347 C27.78541748 0.17658981 27.78541748 0.17658981 29.3125 0.1796875 C30.32973145 0.17873077 31.34696289 0.17777405 32.39501953 0.17678833 C34.55045636 0.17610639 36.70589522 0.17796165 38.86132812 0.18212891 C42.17322371 0.18747695 45.48498367 0.18218437 48.796875 0.17578125 C50.88541697 0.17644203 52.97395885 0.17772319 55.0625 0.1796875 C56.06039551 0.17766327 57.05829102 0.17563904 58.08642578 0.17355347 C59.00407715 0.17670563 59.92172852 0.17985779 60.8671875 0.18310547 C61.67913574 0.18390106 62.49108398 0.18469666 63.32763672 0.18551636 C65.1875 0.3125 65.1875 0.3125 66.1875 1.3125 C66.31344243 4.06567786 66.37617916 6.79237423 66.390625 9.546875 C66.39632507 10.37705139 66.40202515 11.20722778 66.40789795 12.06256104 C66.41736468 13.82457194 66.42388854 15.58660068 66.42773438 17.34863281 C66.43740978 20.03742759 66.46840409 22.72544832 66.5 25.4140625 C66.50653288 27.12499546 66.51178223 28.83593389 66.515625 30.546875 C66.5279718 31.34913513 66.5403186 32.15139526 66.55303955 32.97796631 C66.53969204 36.34557023 66.25449292 39.08805827 65.28686523 42.32983398 C61.79667102 45.62601577 57.8798014 44.92641939 53.26953125 44.80078125 C52.29715012 44.79370651 51.32476898 44.78663177 50.32292175 44.77934265 C47.21450138 44.75133408 44.10787666 44.68858275 41 44.625 C38.89390621 44.59992553 36.7877842 44.57711088 34.68164062 44.55664062 C29.51623429 44.50148599 24.35217165 44.41516795 19.1875 44.3125 C19.52977572 47.28315509 19.52977572 47.28315509 20.1875 50.3125 C23.46065509 51.94907754 27.09372231 51.5555807 30.6953125 51.62890625 C31.95624222 51.6600779 31.95624222 51.6600779 33.24264526 51.69187927 C35.93251235 51.75735439 38.62247843 51.8162502 41.3125 51.875 C43.13412489 51.91818716 44.95573971 51.96180152 46.77734375 52.00585938 C51.24729394 52.11303368 55.71734386 52.21430685 60.1875 52.3125 C60.1875 55.64583333 60.1875 58.97916667 60.1875 62.3125 C60.21070312 62.93125 60.23390625 63.55 60.2578125 64.1875 C60.27585937 64.88875 60.29390625 65.59 60.3125 66.3125 C60.33570312 67.01375 60.35890625 67.715 60.3828125 68.4375 C60.1875 70.3125 60.1875 70.3125 58.1875 72.3125 C56.3125 72.578125 56.3125 72.578125 54.1875 72.5625 C53.48625 72.56765625 52.785 72.5728125 52.0625 72.578125 C50.1875 72.3125 50.1875 72.3125 48.1875 70.3125 C47.85997766 67.59795044 48.0566575 65.06019241 48.1875 62.3125 C48.5175 61.9825 48.8475 61.6525 49.1875 61.3125 C42.5875 61.3125 35.9875 61.3125 29.1875 61.3125 C29.5175 61.6425 29.8475 61.9725 30.1875 62.3125 C30.46064815 68.04861111 30.46064815 68.04861111 30.1875 70.3125 C28.1875 72.3125 28.1875 72.3125 26.3125 72.578125 C25.61125 72.57296875 24.91 72.5678125 24.1875 72.5625 C23.48625 72.56765625 22.785 72.5728125 22.0625 72.578125 C20.1875 72.3125 20.1875 72.3125 18.1875 70.3125 C17.85997766 67.59795044 18.0566575 65.06019241 18.1875 62.3125 C18.5175 61.9825 18.8475 61.6525 19.1875 61.3125 C18.259375 60.735 17.33125 60.1575 16.375 59.5625 C13.47672745 57.51666055 11.9892847 56.27869431 10.1875 53.3125 C9.8503418 50.94091797 9.8503418 50.94091797 9.88671875 48.3046875 C9.87983032 46.8364856 9.87983032 46.8364856 9.87280273 45.33862305 C9.87352783 44.29875244 9.87425293 43.25888184 9.875 42.1875 C9.70659203 32.20460805 8.0880693 23.96650497 4.46484375 14.69921875 C3.1875 11.3125 3.1875 11.3125 3.1875 8.3125 C2.47722656 8.32410156 1.76695313 8.33570313 1.03515625 8.34765625 C0.11605469 8.35667969 -0.80304687 8.36570312 -1.75 8.375 C-2.66652344 8.38660156 -3.58304688 8.39820313 -4.52734375 8.41015625 C-6.8125 8.3125 -6.8125 8.3125 -7.8125 7.3125 C-7.9375 4.3125 -7.9375 4.3125 -7.8125 1.3125 C-5.88285936 -0.61714064 -2.56524242 0.05019527 0 0 Z "
        fill="#FE9700" transform="translate(17.8125,11.6875)" />
    <path
        d="M0 0 C1.24394531 -0.03738281 2.48789062 -0.07476562 3.76953125 -0.11328125 C7.1875 0.3125 7.1875 0.3125 9.40625 1.73046875 C12.03079899 5.53491366 13.40174719 9.5787259 14.875 13.9375 C15.33616211 15.21560547 15.33616211 15.21560547 15.80664062 16.51953125 C17.64376933 21.83393857 18.63737021 26.77713794 18.98754883 32.39208984 C18.98436318 34.319389 18.98436318 34.319389 20.1875 35.3125 C21.62934293 35.43471525 23.07693144 35.49022758 24.52368164 35.51782227 C25.4445607 35.53776749 26.36543976 35.55771271 27.31422424 35.57826233 C28.81577309 35.60333107 28.81577309 35.60333107 30.34765625 35.62890625 C31.87706093 35.6600779 31.87706093 35.6600779 33.43736267 35.69187927 C36.70817048 35.75748852 39.97906137 35.81631234 43.25 35.875 C45.46159728 35.91817442 47.67318603 35.96178834 49.88476562 36.00585938 C55.31892151 36.1131814 60.75316082 36.21492623 66.1875 36.3125 C65.64026317 39.68712715 65.1326 41.39485 63.1875 44.3125 C61.27658081 44.67326355 61.27658081 44.67326355 58.92138672 44.65307617 C58.04062469 44.65284958 57.15986267 44.65262299 56.25241089 44.65238953 C55.30028717 44.63690567 54.34816345 44.62142181 53.3671875 44.60546875 C52.39339142 44.60122391 51.41959534 44.59697906 50.41629028 44.59260559 C47.29808195 44.57577786 44.18051383 44.53811811 41.0625 44.5 C38.95183223 44.48495846 36.84115436 44.47126914 34.73046875 44.45898438 C29.54925977 44.42586109 24.36842561 44.37562151 19.1875 44.3125 C19.52977572 47.28315509 19.52977572 47.28315509 20.1875 50.3125 C23.46065509 51.94907754 27.09372231 51.5555807 30.6953125 51.62890625 C31.95624222 51.6600779 31.95624222 51.6600779 33.24264526 51.69187927 C35.93251235 51.75735439 38.62247843 51.8162502 41.3125 51.875 C43.13412489 51.91818716 44.95573971 51.96180152 46.77734375 52.00585938 C51.24729394 52.11303368 55.71734386 52.21430685 60.1875 52.3125 C60.1875 55.64583333 60.1875 58.97916667 60.1875 62.3125 C60.21070312 62.93125 60.23390625 63.55 60.2578125 64.1875 C60.27585937 64.88875 60.29390625 65.59 60.3125 66.3125 C60.33570312 67.01375 60.35890625 67.715 60.3828125 68.4375 C60.1875 70.3125 60.1875 70.3125 58.1875 72.3125 C56.3125 72.578125 56.3125 72.578125 54.1875 72.5625 C53.48625 72.56765625 52.785 72.5728125 52.0625 72.578125 C50.1875 72.3125 50.1875 72.3125 48.1875 70.3125 C47.85997766 67.59795044 48.0566575 65.06019241 48.1875 62.3125 C48.5175 61.9825 48.8475 61.6525 49.1875 61.3125 C42.5875 61.3125 35.9875 61.3125 29.1875 61.3125 C29.5175 61.6425 29.8475 61.9725 30.1875 62.3125 C30.46064815 68.04861111 30.46064815 68.04861111 30.1875 70.3125 C28.1875 72.3125 28.1875 72.3125 26.3125 72.578125 C25.61125 72.57296875 24.91 72.5678125 24.1875 72.5625 C23.48625 72.56765625 22.785 72.5728125 22.0625 72.578125 C20.1875 72.3125 20.1875 72.3125 18.1875 70.3125 C17.85997766 67.59795044 18.0566575 65.06019241 18.1875 62.3125 C18.5175 61.9825 18.8475 61.6525 19.1875 61.3125 C18.259375 60.735 17.33125 60.1575 16.375 59.5625 C13.47672745 57.51666055 11.9892847 56.27869431 10.1875 53.3125 C9.8503418 50.94091797 9.8503418 50.94091797 9.88671875 48.3046875 C9.87983032 46.8364856 9.87983032 46.8364856 9.87280273 45.33862305 C9.87352783 44.29875244 9.87425293 43.25888184 9.875 42.1875 C9.70659203 32.20460805 8.0880693 23.96650497 4.46484375 14.69921875 C3.1875 11.3125 3.1875 11.3125 3.1875 8.3125 C2.47722656 8.32410156 1.76695313 8.33570313 1.03515625 8.34765625 C0.11605469 8.35667969 -0.80304687 8.36570312 -1.75 8.375 C-2.66652344 8.38660156 -3.58304688 8.39820313 -4.52734375 8.41015625 C-6.8125 8.3125 -6.8125 8.3125 -7.8125 7.3125 C-7.9375 4.3125 -7.9375 4.3125 -7.8125 1.3125 C-5.88285936 -0.61714064 -2.56524242 0.05019527 0 0 Z "
        fill="#009688" transform="translate(17.8125,11.6875)" />
    <path
        d="M0 0 C0.70125 0.00515625 1.4025 0.0103125 2.125 0.015625 C2.82625 0.01046875 3.5275 0.0053125 4.25 0 C6.125 0.265625 6.125 0.265625 8.125 2.265625 C8.390625 4.140625 8.390625 4.140625 8.375 6.265625 C8.38015625 6.966875 8.3853125 7.668125 8.390625 8.390625 C8.125 10.265625 8.125 10.265625 6.125 12.265625 C4.25 12.53125 4.25 12.53125 2.125 12.515625 C1.42375 12.52078125 0.7225 12.5259375 0 12.53125 C-1.875 12.265625 -1.875 12.265625 -3.875 10.265625 C-4.140625 8.390625 -4.140625 8.390625 -4.125 6.265625 C-4.13015625 5.564375 -4.1353125 4.863125 -4.140625 4.140625 C-3.75603481 1.4258707 -2.7147543 0.38459019 0 0 Z "
        fill="#3B4C54" transform="translate(69.875,71.734375)" />
    <path
        d="M0 0 C0.70125 0.00515625 1.4025 0.0103125 2.125 0.015625 C2.82625 0.01046875 3.5275 0.0053125 4.25 0 C6.125 0.265625 6.125 0.265625 8.125 2.265625 C8.390625 4.140625 8.390625 4.140625 8.375 6.265625 C8.38015625 6.966875 8.3853125 7.668125 8.390625 8.390625 C8.125 10.265625 8.125 10.265625 6.125 12.265625 C4.25 12.53125 4.25 12.53125 2.125 12.515625 C1.42375 12.52078125 0.7225 12.5259375 0 12.53125 C-1.875 12.265625 -1.875 12.265625 -3.875 10.265625 C-4.140625 8.390625 -4.140625 8.390625 -4.125 6.265625 C-4.13015625 5.564375 -4.1353125 4.863125 -4.140625 4.140625 C-3.75603481 1.4258707 -2.7147543 0.38459019 0 0 Z "
        fill="#3B4C54" transform="translate(39.875,71.734375)" />
    <path
        d="M0 0 C4.62 0 9.24 0 14 0 C14 1.32 14 2.64 14 4 C9.38 4 4.76 4 0 4 C0 2.68 0 1.36 0 0 Z "
        fill="#8B5200" transform="translate(53,18)" />
    <path
        d="M0 0 C2.5625 0.1875 2.5625 0.1875 4.5625 2.1875 C4.00694444 6.74305556 4.00694444 6.74305556 2.5625 8.1875 C0.0625 8.3125 0.0625 8.3125 -2.4375 8.1875 C-3.4375 7.1875 -3.4375 7.1875 -3.5625 4.1875 C-3.39891479 0.26145498 -3.39891479 0.26145498 0 0 Z "
        fill="#006A5C" transform="translate(13.4375,11.8125)" />
</svg>